<?xml version="1.0" encoding="iso-8859-1"?>
<svg version="1.1" id="Capa_1" xmlns="http://www.w3.org/2000/svg" xmlns:xlink="http://www.w3.org/1999/xlink" x="0px" y="0px"
	 viewBox="0 0 512.001 512.001" fill="#d0ae5e" style="enable-background:new 0 0 512.001 512.001;" xml:space="preserve">
<g>
	<g>
		<path d="M187.477,57.167c-0.007,0-0.014,0-0.021,0c-4.133,0-7.488,3.344-7.5,7.479l-0.013,4.637
			c-0.012,4.143,3.336,7.51,7.479,7.521c0.007,0,0.014,0,0.021,0c4.133,0,7.488-3.344,7.5-7.479l0.013-4.637
			C194.968,60.546,191.619,57.179,187.477,57.167z"/>
	</g>
</g>
<g>
	<g>
		<path d="M187.389,87.776c-0.008,0-0.016,0-0.022,0c-4.132,0-7.487,3.343-7.5,7.478l-0.014,4.636
			c-0.012,4.142,3.336,7.51,7.478,7.522c0.008,0,0.016,0,0.022,0c4.132,0,7.487-3.343,7.5-7.478l0.014-4.636
			C194.878,91.156,191.53,87.788,187.389,87.776z"/>
	</g>
</g>
<g>
	<g>
		<path d="M205.047,74.841l-4.637-0.013c-0.008,0-0.015,0-0.021,0c-4.133,0-7.488,3.344-7.5,7.479
			c-0.011,4.141,3.338,7.509,7.479,7.521l4.637,0.013c0.008,0,0.015,0,0.021,0c4.133,0,7.488-3.344,7.5-7.479
			C212.538,78.22,209.189,74.852,205.047,74.841z"/>
	</g>
</g>
<g>
	<g>
		<path d="M174.44,74.752l-4.637-0.014c-0.008,0-0.016,0-0.022,0c-4.132,0-7.487,3.343-7.5,7.478
			c-0.011,4.142,3.336,7.51,7.478,7.522l4.637,0.014c0.008,0,0.016,0,0.022,0c4.132,0,7.487-3.343,7.5-7.478
			C181.93,78.132,178.582,74.764,174.44,74.752z"/>
	</g>
</g>
<g>
	<g>
		<path d="M324.671,57.167c-0.008,0-0.016,0-0.022,0c-4.132,0-7.487,3.343-7.5,7.478l-0.014,4.637
			c-0.011,4.142,3.337,7.51,7.478,7.522c0.008,0,0.016,0,0.022,0c4.132,0,7.487-3.343,7.5-7.478l0.014-4.637
			C332.161,60.547,328.813,57.179,324.671,57.167z"/>
	</g>
</g>
<g>
	<g>
		<path d="M324.58,87.776c-4.165-0.015-7.509,3.337-7.521,7.479l-0.013,4.636c-0.012,4.142,3.337,7.509,7.479,7.521
			c0.007,0,0.014,0,0.021,0c4.133,0,7.488-3.344,7.5-7.479l0.013-4.636C332.071,91.155,328.723,87.788,324.58,87.776z"/>
	</g>
</g>
<g>
	<g>
		<path d="M342.242,74.841l-4.637-0.013c-0.008,0-0.015,0-0.021,0c-4.133,0-7.488,3.344-7.5,7.479
			c-0.012,4.141,3.337,7.509,7.479,7.521l4.637,0.013c0.008,0,0.015,0,0.021,0c4.133,0,7.488-3.344,7.5-7.479
			C349.732,78.22,346.384,74.852,342.242,74.841z"/>
	</g>
</g>
<g>
	<g>
		<path d="M311.633,74.752l-4.637-0.014c-0.008,0-0.016,0-0.022,0c-4.132,0-7.487,3.343-7.5,7.478
			c-0.011,4.142,3.337,7.51,7.478,7.522l4.637,0.014c0.008,0,0.016,0,0.022,0c4.132,0,7.487-3.343,7.5-7.478
			C319.123,78.132,315.775,74.764,311.633,74.752z"/>
	</g>
</g>
<g>
	<g>
		<path d="M395.888,365.371c-1.987-3.632-6.544-4.964-10.179-2.975c-33.383,18.29-69.102,28.295-102.942,29.121l43.639-24.721
			c3.604-2.042,4.871-6.619,2.829-10.223c-2.041-3.604-6.62-4.871-10.222-2.829L263.5,385.192v-12.235c0-4.142-3.357-7.5-7.5-7.5
			c-4.143,0-7.5,3.358-7.5,7.5v12.235l-55.513-31.448c-3.603-2.041-8.181-0.776-10.222,2.829c-2.042,3.604-0.775,8.181,2.829,10.223
			l43.646,24.725c-34.276-0.829-70.439-11.078-104.198-29.818c-3.623-2.012-8.188-0.704-10.198,2.917
			c-2.01,3.622-0.704,8.187,2.917,10.198c17.775,9.867,36.211,17.517,54.756,22.836c-8.14,13.859-12.076,29.776-11.156,45.758
			c0.51,8.842,7.562,15.895,16.403,16.405c1.515,0.088,3.029,0.131,4.544,0.131c13.342,0,26.617-3.375,38.476-9.728
			c4.306,14.287,12.404,27.208,23.608,37.194c3.307,2.947,7.454,4.421,11.602,4.42c4.146,0,8.293-1.473,11.599-4.418
			c11.214-9.989,19.316-22.913,23.624-37.203c11.863,6.357,25.139,9.734,38.479,9.734c1.508,0,3.018-0.043,4.524-0.13
			c8.843-0.508,15.896-7.561,16.406-16.403c0.924-15.987-3.009-31.909-11.147-45.769c18.091-5.187,36.079-12.582,53.437-22.092
			C396.547,373.561,397.878,369.003,395.888,365.371z M217.676,434.685c-11.703,7.343-25.443,10.939-39.046,10.157
			c-1.216-0.07-2.224-1.078-2.294-2.293c-0.832-14.471,3.235-28.898,11.481-41.043c10.667,2.315,21.318,3.853,31.85,4.581
			c-1.604,6.511-2.432,13.214-2.432,20.024C217.235,428.991,217.385,431.852,217.676,434.685z M257.616,476.214
			c-0.91,0.81-2.335,0.811-3.243,0c-14.069-12.539-22.138-30.8-22.138-50.104c0-6.689,0.962-13.245,2.836-19.547
			c7.065-0.046,14.058-0.455,20.929-1.263c6.874,0.808,13.863,1.229,20.932,1.274c1.873,6.297,2.834,12.85,2.834,19.536
			C279.767,445.412,271.693,463.674,257.616,476.214z M335.652,442.548c-0.07,1.215-1.077,2.222-2.293,2.292
			c-13.606,0.785-27.333-2.818-39.033-10.162c0.291-2.831,0.44-5.69,0.44-8.568c0-6.816-0.829-13.523-2.435-20.036
			c10.532-0.73,21.185-2.254,31.856-4.57C332.426,413.647,336.488,428.075,335.652,442.548z"/>
	</g>
</g>
<g>
	<g>
		<path d="M509.275,219.348c-2.595-4.113-6.656-6.911-11.437-7.877c-25.313-5.115-52.563-4.627-79.977,1.045
			c10.042-31.046,12.843-62.149,8.042-90.586c-0.803-4.754-3.562-9.018-7.57-11.698c-4.008-2.679-9-3.599-13.703-2.522
			c-33.114,7.583-65.267,26.177-92.544,52.869c-11.904-20.791-26.949-38.793-44.829-53.574c-6.513-5.383-15.965-5.383-22.478,0
			c-17.902,14.798-32.959,32.804-44.866,53.598c-6.864-6.698-14.08-12.931-21.633-18.659c-3.302-2.503-8.006-1.856-10.508,1.444
			c-2.503,3.3-1.856,8.005,1.443,10.508c19.52,14.804,36.692,33.192,51.039,54.658c22.89,34.251,36.098,73.341,37.194,110.077
			c-0.48,0.701-0.976,1.394-1.448,2.098c-18.997-28.385-45.152-53.506-76.252-73.128c-21.877-13.804-44.989-24.145-68.251-30.809
			c-11.783-31.707-15.467-63.598-10.609-92.365c0.162-0.959,0.769-1.491,1.115-1.723c0.347-0.232,1.068-0.59,2.02-0.372
			c12.191,2.792,24.528,7.357,36.671,13.569c3.685,1.886,8.205,0.428,10.093-3.261c1.887-3.688,0.427-8.207-3.261-10.093
			c-13.246-6.777-26.756-11.769-40.155-14.837c-4.7-1.077-9.695-0.156-13.703,2.522c-4.009,2.68-6.768,6.943-7.57,11.697
			c-4.804,28.453-2.009,59.541,8.034,90.584c-27.411-5.671-54.659-6.158-79.971-1.042c-4.779,0.966-8.841,3.764-11.436,7.877
			c-2.595,4.113-3.37,8.983-2.184,13.712c11.33,45.165,43.04,89.739,87,122.292c3.329,2.465,8.026,1.765,10.49-1.564
			c2.465-3.329,1.765-8.025-1.564-10.491C55.25,312.774,25.59,271.264,15.09,229.409c-0.242-0.965,0.098-1.704,0.321-2.059
			c0.225-0.355,0.746-0.98,1.721-1.177c48.399-9.78,104.754,2.652,154.612,34.11c32.174,20.3,58.66,46.768,76.756,76.617v14.324
			c0,4.142,3.357,7.5,7.5,7.5c4.143,0,7.5-3.358,7.5-7.5V336.9c18.094-29.849,44.582-56.316,76.756-76.617
			c49.858-31.458,106.217-43.891,154.611-34.111c0.976,0.197,1.497,0.823,1.722,1.178c0.224,0.355,0.563,1.094,0.321,2.06
			c-10.607,42.285-40.674,84.097-82.491,114.715c-3.342,2.447-4.067,7.14-1.621,10.482c1.47,2.007,3.748,3.07,6.058,3.07
			c1.538,0,3.09-0.471,4.425-1.449c44.595-32.651,76.734-77.545,88.179-123.168C512.645,228.331,511.87,223.462,509.275,219.348z
			 M255.98,243.839c-6.163-15.029-13.959-29.71-23.255-43.621c-6.738-10.083-14.071-19.53-21.949-28.302
			c11.328-20.865,25.965-38.805,43.561-53.35c0.975-0.807,2.391-0.806,3.365,0c17.58,14.533,32.208,32.474,43.536,53.349
			c-7.854,8.754-15.215,18.209-21.96,28.303C269.951,214.173,262.157,228.784,255.98,243.839z M400.51,216.789
			c-23.264,6.664-46.378,17.006-68.257,30.81c-23.544,14.856-44.248,32.867-61.163,53.056c-1.411-11.487-3.849-23.075-7.262-34.585
			c6.374-19.978,15.765-39.329,27.92-57.518c29.891-44.725,72.256-76.151,116.231-86.222c0.949-0.217,1.673,0.14,2.02,0.372
			c0.347,0.232,0.953,0.764,1.115,1.724C415.969,153.175,412.29,185.082,400.51,216.789z"/>
	</g>
</g>
<g>
	<g>
		<path d="M256.074,20.168c-0.007,0-0.014,0-0.021,0c-4.133,0-7.488,3.344-7.5,7.479l-0.013,4.637
			c-0.013,4.143,3.336,7.51,7.479,7.521c0.007,0,0.014,0,0.021,0c4.133,0,7.488-3.344,7.5-7.479l0.013-4.637
			C263.565,23.547,260.216,20.18,256.074,20.168z"/>
	</g>
</g>
<g>
	<g>
		<path d="M255.983,50.777c-4.168,0.023-7.509,3.337-7.521,7.479l-0.013,4.636c-0.012,4.142,3.337,7.509,7.479,7.521
			c0.007,0,0.014,0,0.021,0c4.133,0,7.488-3.344,7.5-7.479l0.013-4.636C263.475,54.156,260.126,50.789,255.983,50.777z"/>
	</g>
</g>
<g>
	<g>
		<path d="M273.644,37.842l-4.637-0.013c-0.008,0-0.015,0-0.021,0c-4.133,0-7.488,3.344-7.5,7.479
			c-0.011,4.141,3.337,7.509,7.479,7.521l4.637,0.013c0.008,0,0.015,0,0.021,0c4.133,0,7.488-3.344,7.5-7.479
			C281.135,41.221,277.786,37.853,273.644,37.842z"/>
	</g>
</g>
<g>
	<g>
		<path d="M243.037,37.753l-4.637-0.014c-0.008,0-0.016,0-0.022,0c-4.132,0-7.487,3.343-7.5,7.478
			c-0.012,4.142,3.336,7.51,7.478,7.522l4.637,0.014c0.008,0,0.016,0,0.022,0c4.132,0,7.487-3.343,7.5-7.478
			C250.527,41.133,247.179,37.765,243.037,37.753z"/>
	</g>
</g>
<g>
</g>
<g>
</g>
<g>
</g>
<g>
</g>
<g>
</g>
<g>
</g>
<g>
</g>
<g>
</g>
<g>
</g>
<g>
</g>
<g>
</g>
<g>
</g>
<g>
</g>
<g>
</g>
<g>
</g>
</svg>
