<?xml version="1.0"?>
<svg xmlns="http://www.w3.org/2000/svg" viewBox="0 0 64 64" fill="#d0ae5e" width="512" height="512"><g id="Outlines"><path d="M61.873,37.513a18.84,18.84,0,0,0-5.849-6.4A22.342,22.342,0,0,0,59.994,17.8a1,1,0,0,0-.48-.832,22.492,22.492,0,0,0-13.438-3.239,1,1,0,0,0,.168,1.992A20.465,20.465,0,0,1,58,18.4a19.654,19.654,0,0,1-9.594,17.086,18.919,18.919,0,0,1-12.675,2.23q.67-.529,1.3-1.106A22.426,22.426,0,0,0,49.9,25.447a1,1,0,0,0-1.79-.894,20.391,20.391,0,0,1-7.9,8.411,21.684,21.684,0,0,0,1.655-2.81,1,1,0,0,0-1.8-.881A20.092,20.092,0,0,1,33,37.222V27a1,1,0,0,0-2,0V37.226A19.567,19.567,0,0,1,22,21,19.658,19.658,0,0,1,32,4.148,19.658,19.658,0,0,1,42,21a18.738,18.738,0,0,1-.6,4.681,1,1,0,0,0,1.936.5A20.749,20.749,0,0,0,44,21,20.968,20.968,0,0,0,40.182,9.014,16.68,16.68,0,0,1,47.883,7a17.041,17.041,0,0,1,1.5,3.646,1,1,0,1,0,1.926-.539,19,19,0,0,0-1.987-4.621A1,1,0,0,0,48.476,5,18.965,18.965,0,0,0,38.952,7.42a22.719,22.719,0,0,0-6.472-5.3,1,1,0,0,0-.96,0,22.728,22.728,0,0,0-6.159,4.934A18.861,18.861,0,0,0,16.524,5a1,1,0,0,0-.843.487,18.85,18.85,0,0,0-2.628,8.393,22.742,22.742,0,0,0-8.567,3.086,1,1,0,0,0-.48.832A21.951,21.951,0,0,0,12.15,35.563a1,1,0,1,0,1.235-1.575A19.893,19.893,0,0,1,6,18.4a20.059,20.059,0,0,1,14.582-2.2A20.52,20.52,0,0,0,20,21a20.959,20.959,0,0,0,3.767,11.908,20.273,20.273,0,0,1-7.051-6.992l-.859-1.431a1,1,0,1,0-1.714,1.03L15,26.945a22.312,22.312,0,0,0,11.948,9.633q.633.587,1.319,1.127A19.1,19.1,0,0,1,16.607,36a1,1,0,0,0-.892,1.789,20.935,20.935,0,0,0,9.362,2.194,21.748,21.748,0,0,0,5.428-.7c.108.066.219.128.327.193A16.152,16.152,0,0,1,18,46,16.265,16.265,0,0,1,4.155,38,17.057,17.057,0,0,1,6.74,34.7a1,1,0,0,0-1.41-1.418,18.979,18.979,0,0,0-3.2,4.227,1,1,0,0,0,0,.974A18.292,18.292,0,0,0,18,48a17.561,17.561,0,0,0,4.694-.647,47.131,47.131,0,0,1,7.011,11.013l1.385,3.048A1,1,0,0,0,32,62h.039a1,1,0,0,0,.9-.657A47.188,47.188,0,0,1,38.52,50.568a1,1,0,0,0-1.643-1.14,49.153,49.153,0,0,0-4.945,9.005l-.407-.9a49.061,49.061,0,0,0-6.8-10.879A18.463,18.463,0,0,0,32,41.234a17.94,17.94,0,0,0,29.873-2.747A1,1,0,0,0,61.873,37.513ZM15.067,13.691A16.854,16.854,0,0,1,17.117,7a16.813,16.813,0,0,1,6.967,1.645,21.457,21.457,0,0,0-2.936,5.61A21.154,21.154,0,0,0,15.067,13.691ZM46,46a16.155,16.155,0,0,1-12.835-6.532c.108-.064.216-.127.322-.192a21.993,21.993,0,0,0,5.507.72A20.64,20.64,0,0,0,54.788,32.72,16.808,16.808,0,0,1,59.845,38,16.268,16.268,0,0,1,46,46Z"/></g></svg>
